<svg width="48" height="48" viewBox="0 0 48 48" fill="none" xmlns="http://www.w3.org/2000/svg" xmlns:xlink="http://www.w3.org/1999/xlink">
<path d="M24,0C19.253,0 14.613,1.408 10.666,4.045C6.72,6.682 3.643,10.43 1.827,14.816C0.01,19.201 -0.465,24.027 0.461,28.682C1.387,33.338 3.673,37.614 7.029,40.971C10.386,44.327 14.662,46.613 19.318,47.539C23.973,48.465 28.799,47.99 33.184,46.173C37.57,44.357 41.318,41.28 43.955,37.334C46.592,33.387 48,28.747 48,24C47.993,17.637 45.462,11.536 40.963,7.037C36.464,2.538 30.363,0.007 24,0L24,0ZM24,44C20.044,44 16.178,42.827 12.889,40.629C9.6,38.432 7.036,35.308 5.522,31.654C4.009,27.999 3.613,23.978 4.384,20.098C5.156,16.219 7.061,12.655 9.858,9.858C12.655,7.061 16.219,5.156 20.098,4.384C23.978,3.613 27.999,4.009 31.654,5.522C35.308,7.036 38.432,9.6 40.629,12.889C42.827,16.178 44,20.044 44,24C43.994,29.303 41.885,34.386 38.136,38.136C34.386,41.885 29.303,43.994 24,44L24,44Z" fill="#3A4F39"/>
<path d="M24,12C23.469,12 22.961,12.211 22.585,12.586C22.21,12.961 22,13.47 22,14L22,22.65L15.258,26.874C14.807,27.156 14.486,27.605 14.367,28.123C14.247,28.641 14.338,29.185 14.62,29.636C14.901,30.087 15.351,30.407 15.869,30.527C16.386,30.647 16.931,30.556 17.382,30.274L25.062,25.474C25.352,25.292 25.59,25.039 25.755,24.738C25.919,24.438 26.003,24.1 26,23.758L26,14C26,13.47 25.789,12.961 25.414,12.586C25.039,12.211 24.53,12 24,12Z" fill="#3A4F39"/>
</svg>
