<svg width="48" height="48" viewBox="0 0 48 48" fill="none" xmlns="http://www.w3.org/2000/svg" xmlns:xlink="http://www.w3.org/1999/xlink">
<path d="M26,2C26,1.47 26.211,0.961 26.586,0.586C26.961,0.211 27.469,0 28,0C33.302,0.006 38.386,2.115 42.135,5.865C45.885,9.614 47.994,14.698 48,20C48,20.531 47.789,21.039 47.414,21.414C47.039,21.789 46.53,22 46,22C45.469,22 44.961,21.789 44.586,21.414C44.211,21.039 44,20.531 44,20C43.995,15.758 42.308,11.691 39.308,8.692C36.309,5.692 32.242,4.005 28,4C27.469,4 26.961,3.789 26.586,3.414C26.211,3.039 26,2.531 26,2L26,2ZM28,12C30.122,12 32.156,12.843 33.657,14.343C35.157,15.844 36,17.878 36,20C36,20.531 36.211,21.039 36.586,21.414C36.961,21.789 37.469,22 38,22C38.53,22 39.039,21.789 39.414,21.414C39.789,21.039 40,20.531 40,20C39.997,16.819 38.731,13.768 36.482,11.518C34.232,9.269 31.181,8.003 28,8C27.469,8 26.961,8.211 26.586,8.586C26.211,8.961 26,9.47 26,10C26,10.531 26.211,11.039 26.586,11.414C26.961,11.789 27.469,12 28,12L28,12ZM46.186,33.478C47.345,34.64 47.996,36.215 47.996,37.856C47.996,39.498 47.345,41.072 46.186,42.234L44.366,44.332C27.986,60.014 -11.874,20.164 3.566,3.732L5.866,1.732C7.029,0.606 8.59,-0.018 10.209,-0.003C11.829,0.012 13.377,0.664 14.52,1.812C14.582,1.874 18.288,6.688 18.288,6.688C19.387,7.843 20,9.378 19.997,10.973C19.994,12.568 19.377,14.101 18.274,15.252L15.958,18.164C17.24,21.278 19.124,24.109 21.503,26.492C23.882,28.876 26.708,30.766 29.82,32.054L32.75,29.724C33.902,28.622 35.434,28.005 37.028,28.003C38.623,28.001 40.157,28.613 41.312,29.712C41.312,29.712 46.124,33.416 46.186,33.478ZM43.434,36.386C43.434,36.386 38.648,32.704 38.586,32.642C38.174,32.234 37.617,32.004 37.037,32.004C36.457,32.004 35.9,32.234 35.488,32.642C35.434,32.698 31.4,35.912 31.4,35.912C31.128,36.129 30.804,36.27 30.461,36.324C30.118,36.377 29.766,36.34 29.442,36.216C25.411,34.715 21.749,32.366 18.706,29.326C15.662,26.287 13.307,22.629 11.8,18.6C11.666,18.271 11.623,17.912 11.674,17.561C11.725,17.209 11.868,16.878 12.09,16.6C12.09,16.6 15.304,12.564 15.358,12.512C15.766,12.1 15.996,11.543 15.996,10.963C15.996,10.383 15.766,9.826 15.358,9.414C15.296,9.354 11.614,4.564 11.614,4.564C11.196,4.189 10.65,3.988 10.088,4.003C9.527,4.017 8.992,4.246 8.594,4.642L6.294,6.642C-4.99,20.21 29.552,52.836 41.442,41.6L43.264,39.5C43.691,39.105 43.947,38.559 43.979,37.978C44.011,37.396 43.815,36.826 43.434,36.386L43.434,36.386Z" fill="#3A4F39"/>
</svg>
