<svg width="48" height="44" viewBox="0 0 48 44" fill="none" xmlns="http://www.w3.org/2000/svg" xmlns:xlink="http://www.w3.org/1999/xlink">
<path d="M38,0L10,0C7.349,0.003 4.807,1.057 2.932,2.932C1.058,4.807 0.003,7.349 0,10L0,34C0.003,36.651 1.058,39.192 2.932,41.067C4.807,42.942 7.349,43.996 10,44L38,44C40.651,43.996 43.193,42.942 45.068,41.067C46.942,39.192 47.997,36.651 48,34L48,10C47.997,7.349 46.942,4.807 45.068,2.932C43.193,1.057 40.651,0.003 38,0L38,0ZM10,4L38,4C39.198,4.002 40.367,4.363 41.358,5.035C42.349,5.708 43.116,6.662 43.56,7.774L28.244,23.092C27.117,24.214 25.591,24.845 24,24.845C22.409,24.845 20.883,24.214 19.756,23.092L4.44,7.774C4.884,6.662 5.651,5.708 6.642,5.035C7.633,4.363 8.802,4.002 10,4L10,4ZM38,40L10,40C8.409,40 6.883,39.367 5.757,38.242C4.632,37.117 4,35.591 4,34L4,13L16.928,25.92C18.805,27.792 21.349,28.844 24,28.844C26.651,28.844 29.195,27.792 31.072,25.92L44,13L44,34C44,35.591 43.368,37.117 42.243,38.242C41.117,39.367 39.591,40 38,40Z" fill="#3A4F39"/>
</svg>
